<?xml version="1.0" standalone="no"?><!DOCTYPE svg PUBLIC "-//W3C//DTD SVG 1.1//EN" "http://www.w3.org/Graphics/SVG/1.1/DTD/svg11.dtd"><svg t="1543396821976" class="icon" style="" viewBox="0 0 1173 1024" version="1.1" xmlns="http://www.w3.org/2000/svg" p-id="8871" xmlns:xlink="http://www.w3.org/1999/xlink" width="229.1015625" height="200"><defs><style type="text/css"></style></defs><path d="M569.27232 1017.6c-0.9216-0.6912-1.9968-1.0496-2.816-1.8688l-158.9504-158.91968c-11.0848-11.08992-11.0592-29.08672 0.0512-40.19712 11.0336-11.0848 29.0304-11.0848 40.1408 0l110.4128 110.4128v-335.39072a28.42112 28.42112 0 0 1 56.832 0.03072l-0.0256 335.36 110.4384-110.4128a28.3904 28.3904 0 0 1 40.1664-0.0256 28.43136 28.43136 0 0 1 0 40.2176l-158.9248 158.91968s-0.0512 0.03072-0.0768 0.03072a28.48768 28.48768 0 0 1-9.1136 6.0672 28.4928 28.4928 0 0 1-21.8112 0c-2.4064-0.9984-4.3776-2.63168-6.3232-4.224z m34.4832-1011.2256c0.9216 0.6912 1.9968 1.0496 2.816 1.8944l158.9504 158.8992c11.1104 11.07968 11.0592 29.0816-0.0512 40.192-11.0336 11.0848-29.0304 11.0848-40.1408 0l-110.4128-110.40768V432.3328a28.416 28.416 0 0 1-28.4416 28.3904 28.416 28.416 0 0 1-28.416-28.416l0.0256-335.36L447.64672 207.36a28.3904 28.3904 0 0 1-40.1664 0.0256 28.42112 28.42112 0 0 1 0-40.21248l158.9248-158.8992s0.0512-0.0512 0.0768-0.0512a28.18048 28.18048 0 0 1 9.1392-6.04672 28.43136 28.43136 0 0 1 21.7856 0c2.40128 0.9984 4.37248 2.63168 6.3488 4.1984z m488.3712 522.8544c-0.6912 0.9216-1.0496 1.9968-1.8944 2.816L931.328 690.9952c-11.07968 11.0848-29.0816 11.0592-40.192-0.0512-11.1104-11.0336-11.1104-29.03552 0-40.14592l110.39232-110.40768h-335.36a28.39552 28.39552 0 0 1-28.39552-28.416c0-15.6928 12.6976-28.416 28.39552-28.416l335.36 0.0256-110.39232-110.4384a28.416 28.416 0 0 1-0.0512-40.1664 28.45696 28.45696 0 0 1 40.23808 0l158.8992 158.9248s0.0512 0.0512 0.0512 0.0768a27.8016 27.8016 0 0 1 6.04672 9.1136 28.4928 28.4928 0 0 1 0 21.8112c-0.99328 2.4064-2.63168 4.37248-4.19328 6.3232z m-1011.2512-34.4576c0.6912-0.9216 1.0496-1.9968 1.8944-2.816L241.66912 333.0048c11.0848-11.1104 29.0816-11.0592 40.192 0.0512 11.1104 11.0336 11.1104 29.03552 0 40.14592l-110.3872 110.40768 335.36-0.0256a28.416 28.416 0 0 1 28.3904 28.4416 28.416 28.416 0 0 1-28.3904 28.416l-335.36-0.0512 110.3872 110.4384a28.44672 28.44672 0 0 1 0.0512 40.192 28.46208 28.46208 0 0 1-40.2432 0L82.76992 532.0704l-0.0512-0.0512a27.68384 27.68384 0 0 1-6.0416-9.1392 28.43136 28.43136 0 0 1 0-21.7856c0.9984-2.4064 2.6368-4.3776 4.1984-6.3232z" p-id="8872" fill="#d81e06"></path></svg>