<?xml version="1.0" standalone="no"?><!DOCTYPE svg PUBLIC "-//W3C//DTD SVG 1.1//EN" "http://www.w3.org/Graphics/SVG/1.1/DTD/svg11.dtd"><svg t="1538642747513" class="icon" style="" viewBox="0 0 1024 1024" version="1.1" xmlns="http://www.w3.org/2000/svg" p-id="4683" xmlns:xlink="http://www.w3.org/1999/xlink" width="200" height="200"><defs><style type="text/css"></style></defs><path d="M516.096 524.288m-460.8 0a460.8 460.8 0 1 0 921.6 0 460.8 460.8 0 1 0-921.6 0Z" fill="#FFFFFF" p-id="4684"></path><path d="M516.096 524.288m-389.12 0a389.12 389.12 0 1 0 778.24 0 389.12 389.12 0 1 0-778.24 0Z" fill="#F6F6F6" p-id="4685"></path><path d="M423.936 221.184c-8.192 0-20.48 2.048-26.624 4.096-8.192 2.048-12.288 14.336-22.528 12.288-6.144 0-6.144-4.096-10.24-8.192-4.096-6.144-4.096-6.144-8.192-8.192-10.24-8.192-16.384-8.192-22.528 2.048-4.096 6.144-4.096 8.192-12.288 8.192-6.144 0-10.24 0-14.336-4.096-8.192 2.048-16.384 2.048-20.48 12.288-4.096 6.144 0 12.288-2.048 20.48l14.336 26.624c0 18.432 22.528 10.24 34.816 16.384 10.24 6.144 14.336 14.336 20.48 22.528s14.336 16.384 22.528 24.576c36.864 34.816 24.576 104.448 67.584 137.216 2.048-8.192 8.192-10.24 6.144-20.48-2.048-8.192-6.144-16.384-2.048-26.624 4.096-10.24 6.144-14.336 2.048-28.672-2.048-8.192-2.048-18.432-4.096-28.672-2.048-6.144-8.192-22.528-6.144-28.672 2.048-4.096 6.144-6.144 8.192-8.192 2.048-4.096 2.048-12.288 2.048-18.432 0-8.192-8.192-14.336-4.096-22.528 2.048-8.192 10.24-8.192 10.24-16.384 0-12.288-14.336-12.288-18.432-24.576-4.096-10.24 2.048-16.384 6.144-24.576-2.048-12.288-8.192-20.48-20.48-18.432z" fill="#48B03B" p-id="4686"></path><path d="M380.928 290.816c-10.24-6.144-24.576-4.096-30.72-14.336s-2.048-20.48-18.432-20.48c-14.336 0-18.432 8.192-30.72-2.048-10.24-8.192-18.432-14.336-28.672-4.096-4.096 4.096-4.096 4.096-10.24 8.192-4.096 2.048-12.288 2.048-12.288 12.288 0 6.144 16.384 18.432 8.192 22.528-2.048 6.144-16.384 14.336-20.48 6.144-10.24 8.192-40.96 22.528-16.384 34.816 10.24 4.096 26.624 2.048 32.768 10.24 4.096 6.144 0 16.384 4.096 20.48s12.288 2.048 18.432 2.048c12.288 4.096 22.528 12.288 34.816 16.384 8.192 2.048 18.432 4.096 24.576 8.192 10.24 8.192 12.288 20.48 16.384 32.768 4.096 14.336 16.384 32.768 24.576 45.056 10.24 14.336 16.384 28.672 22.528 45.056 8.192-6.144 12.288-14.336 18.432-18.432 4.096-2.048 12.288-4.096 12.288-8.192 0-2.048-4.096-10.24-4.096-14.336 0-6.144 2.048-14.336 6.144-18.432-2.048-14.336-8.192-24.576-20.48-28.672-8.192-2.048-12.288 0-12.288-10.24 0-4.096 4.096-8.192 4.096-12.288s-2.048-8.192-4.096-14.336c0-6.144 2.048-14.336-2.048-22.528s-20.48-10.24-24.576-18.432c-2.048-6.144 10.24-18.432 12.288-26.624 8.192-12.288 10.24-22.528-4.096-30.72zM249.856 380.928c-10.24-2.048-22.528 4.096-32.768 0-10.24-6.144-8.192-16.384-22.528-10.24-12.288 4.096-12.288 12.288-26.624 10.24-10.24-2.048-20.48-4.096-26.624 6.144-2.048 4.096-2.048 6.144-6.144 10.24-4.096 4.096-10.24 6.144-6.144 14.336 2.048 4.096 20.48 10.24 14.336 16.384 0 6.144-8.192 18.432-14.336 14.336-6.144 10.24-26.624 34.816 0 34.816 10.24 0 22.528-8.192 32.768-4.096 4.096 2.048 6.144 14.336 12.288 14.336 4.096 2.048 12.288-4.096 16.384-4.096 12.288-2.048 22.528 2.048 34.816 0 8.192-2.048 16.384-4.096 24.576-2.048 10.24 2.048 18.432 12.288 26.624 20.48 10.24 10.24 24.576 20.48 36.864 28.672 14.336 8.192 24.576 18.432 34.816 28.672 4.096-6.144 4.096-16.384 8.192-22.528 2.048-4.096 8.192-8.192 8.192-12.288 0-2.048-8.192-6.144-10.24-10.24-2.048-6.144-4.096-12.288-2.048-18.432-6.144-10.24-14.336-16.384-28.672-16.384-8.192 0-10.24 4.096-14.336-4.096-2.048-4.096 0-8.192-2.048-12.288s-6.144-6.144-8.192-10.24c-4.096-6.144-4.096-14.336-10.24-18.432-8.192-6.144-20.48 0-26.624-6.144-4.096-4.096 0-20.48 0-26.624 4.096-10.24 2.048-18.432-12.288-20.48z" fill="#389D3B" p-id="4687"></path><path d="M327.68 292.864c-4.096-2.048-10.24 2.048-14.336 4.096-6.144 4.096-12.288 4.096-18.432 8.192-4.096 2.048-8.192 8.192-10.24 10.24-8.192 4.096-20.48-6.144-30.72-4.096-14.336 6.144 0 20.48-12.288 26.624-10.24 4.096-26.624-6.144-34.816 2.048-10.24 10.24 30.72 22.528 4.096 34.816 4.096 10.24 2.048 20.48 6.144 28.672 4.096 6.144 10.24 14.336 16.384 16.384 4.096 2.048 10.24 0 14.336 2.048 2.048 0 4.096 4.096 6.144 6.144 4.096 2.048 14.336 0 12.288 6.144 10.24 6.144 6.144-6.144 14.336-6.144 4.096 0 10.24 12.288 14.336 14.336-2.048 0-2.048 2.048-4.096 4.096 0 4.096-2.048 14.336 2.048 18.432 4.096 6.144 6.144 0 12.288 2.048 4.096 2.048 12.288 18.432 18.432 24.576l4.096 10.24c6.144 2.048 10.24 4.096 16.384 8.192 4.096 4.096 8.192 10.24 12.288 12.288 6.144 2.048 12.288 2.048 18.432 6.144 6.144 4.096 12.288 10.24 18.432 12.288 4.096-10.24 6.144-14.336 6.144-26.624 0-8.192 0-10.24-2.048-16.384-2.048-4.096-6.144-6.144-6.144-10.24-4.096-12.288 2.048-22.528 4.096-32.768 2.048-8.192-2.048-24.576-4.096-32.768-4.096-12.288-14.336-6.144-18.432-16.384-2.048-6.144 2.048-10.24-2.048-16.384-2.048-6.144-4.096-4.096-10.24-6.144-10.24-4.096-18.432 0-22.528-12.288-2.048-6.144 4.096-24.576-8.192-22.528-2.048-6.144 10.24-14.336 12.288-20.48-2.048-16.384-4.096-32.768-14.336-34.816z" fill="#3CAC3C" p-id="4688"></path><path d="M561.152 163.84c-8.192 0-20.48 2.048-26.624 4.096-8.192 2.048-12.288 14.336-22.528 12.288-6.144 0-6.144-4.096-10.24-8.192-4.096-6.144-4.096-6.144-8.192-8.192-10.24-8.192-16.384-8.192-22.528 2.048-4.096 6.144-4.096 8.192-12.288 8.192-6.144 0-10.24 0-14.336-4.096-8.192 2.048-16.384 2.048-20.48 12.288-4.096 6.144 0 12.288-2.048 20.48l14.336 26.624c0 18.432 22.528 10.24 34.816 16.384 10.24 6.144 14.336 14.336 20.48 22.528 6.144 8.192 14.336 16.384 22.528 24.576 36.864 34.816 24.576 104.448 67.584 137.216 2.048-8.192 8.192-10.24 6.144-20.48-2.048-8.192-6.144-16.384-2.048-26.624 4.096-10.24 6.144-14.336 2.048-28.672-2.048-8.192-2.048-18.432-4.096-28.672-2.048-6.144-8.192-22.528-6.144-28.672 2.048-4.096 6.144-6.144 8.192-8.192 2.048-4.096 2.048-12.288 2.048-18.432 0-8.192-8.192-14.336-4.096-22.528 2.048-8.192 10.24-8.192 10.24-16.384 0-12.288-14.336-12.288-18.432-24.576-4.096-10.24 2.048-16.384 6.144-24.576 0-10.24-6.144-20.48-20.48-18.432z" fill="#48B03B" p-id="4689"></path><path d="M518.144 235.52c-10.24-6.144-24.576-4.096-30.72-14.336s-2.048-20.48-18.432-20.48c-14.336 0-18.432 8.192-30.72-2.048-8.192-8.192-18.432-14.336-28.672-4.096-4.096 4.096-4.096 4.096-10.24 8.192-4.096 2.048-12.288 2.048-12.288 12.288 0 6.144 16.384 18.432 8.192 22.528-2.048 6.144-16.384 14.336-20.48 6.144-10.24 8.192-40.96 22.528-16.384 34.816 10.24 4.096 26.624 2.048 32.768 10.24 4.096 6.144 0 16.384 4.096 20.48s12.288 2.048 18.432 2.048c12.288 4.096 22.528 12.288 34.816 16.384 8.192 2.048 18.432 4.096 24.576 8.192 10.24 8.192 12.288 20.48 16.384 32.768 4.096 14.336 16.384 32.768 24.576 45.056 10.24 14.336 16.384 28.672 22.528 45.056 8.192-6.144 12.288-14.336 18.432-18.432 4.096-2.048 12.288-4.096 12.288-8.192 0-2.048-4.096-10.24-4.096-14.336 0-6.144 2.048-14.336 6.144-18.432-2.048-14.336-8.192-24.576-20.48-28.672-8.192-2.048-12.288 0-12.288-10.24 0-4.096 4.096-8.192 4.096-12.288s-2.048-8.192-4.096-14.336c0-6.144 2.048-14.336-2.048-22.528-4.096-8.192-20.48-10.24-24.576-18.432-2.048-6.144 10.24-18.432 12.288-26.624 8.192-12.288 10.24-22.528-4.096-30.72zM387.072 325.632c-10.24-2.048-22.528 4.096-32.768 0-10.24-6.144-8.192-16.384-22.528-10.24-12.288 4.096-12.288 12.288-26.624 10.24-10.24-2.048-20.48-4.096-26.624 6.144-2.048 4.096-2.048 6.144-6.144 10.24s-10.24 6.144-6.144 14.336c2.048 4.096 20.48 10.24 14.336 16.384 0 6.144-8.192 18.432-14.336 14.336-6.144 10.24-26.624 34.816 0 34.816 10.24 0 22.528-8.192 32.768-4.096 4.096 2.048 6.144 14.336 12.288 14.336 4.096 2.048 12.288-4.096 16.384-4.096 12.288-2.048 22.528 2.048 34.816 0 8.192-2.048 16.384-4.096 24.576-2.048 10.24 2.048 18.432 12.288 26.624 20.48 10.24 10.24 24.576 20.48 36.864 28.672 14.336 8.192 24.576 18.432 34.816 28.672 4.096-6.144 4.096-16.384 8.192-22.528 2.048-4.096 8.192-8.192 8.192-12.288 0-2.048-8.192-6.144-10.24-10.24-2.048-6.144-4.096-12.288-2.048-18.432-6.144-10.24-14.336-16.384-28.672-16.384-8.192 0-10.24 4.096-14.336-4.096-2.048-4.096 0-8.192-2.048-12.288s-6.144-6.144-8.192-10.24c-4.096-6.144-4.096-14.336-10.24-18.432-8.192-6.144-20.48 0-26.624-6.144-4.096-4.096 0-20.48 0-26.624 4.096-10.24 2.048-20.48-12.288-20.48z" fill="#389D3B" p-id="4690"></path><path d="M464.896 237.568c-4.096-2.048-10.24 2.048-14.336 4.096-6.144 4.096-12.288 4.096-18.432 8.192-4.096 2.048-8.192 8.192-10.24 10.24-8.192 4.096-20.48-6.144-30.72-4.096-14.336 6.144 0 20.48-12.288 26.624-10.24 4.096-26.624-6.144-34.816 2.048-10.24 10.24 30.72 22.528 4.096 34.816 4.096 10.24 2.048 20.48 6.144 28.672 4.096 6.144 10.24 14.336 16.384 16.384 4.096 2.048 10.24 0 14.336 2.048 2.048 0 4.096 4.096 6.144 6.144 4.096 2.048 14.336 0 12.288 6.144 10.24 6.144 6.144-6.144 14.336-6.144 4.096 0 10.24 12.288 14.336 14.336-2.048 0-2.048 2.048-4.096 4.096 0 4.096-2.048 14.336 2.048 18.432 4.096 6.144 6.144 0 12.288 2.048 4.096 2.048 12.288 18.432 18.432 24.576l4.096 10.24c6.144 2.048 10.24 4.096 16.384 8.192 4.096 4.096 8.192 10.24 12.288 12.288 6.144 2.048 12.288 2.048 18.432 6.144 6.144 4.096 12.288 10.24 18.432 12.288 4.096-10.24 6.144-14.336 6.144-26.624 0-8.192 0-10.24-2.048-16.384-2.048-4.096-6.144-6.144-6.144-10.24-4.096-12.288 2.048-22.528 4.096-32.768 2.048-8.192-2.048-24.576-4.096-32.768-4.096-12.288-14.336-6.144-18.432-16.384-2.048-6.144 2.048-10.24-2.048-16.384-2.048-6.144-4.096-4.096-10.24-6.144-10.24-4.096-18.432 0-22.528-12.288-2.048-6.144 4.096-24.576-8.192-22.528-2.048-6.144 10.24-14.336 12.288-20.48-2.048-16.384-4.096-32.768-14.336-34.816z" fill="#3CAC3C" p-id="4691"></path><path d="M649.216 737.28l-208.896-147.456s-63.488-61.44-20.48-153.6 112.64-147.456 198.656-116.736c77.824 45.056 223.232 143.36 223.232 143.36s12.288 8.192 6.144 24.576c-6.144 16.384-165.888 247.808-165.888 247.808s-16.384 14.336-32.768 2.048z" fill="#D4802A" p-id="4692"></path><path d="M645.12 714.752l-188.416-133.12s-57.344-57.344-18.432-139.264 102.4-133.12 180.224-104.448c69.632 40.96 200.704 129.024 200.704 129.024s10.24 8.192 4.096 22.528-151.552 225.28-151.552 225.28-12.288 12.288-26.624 0z" fill="#F9D78E" p-id="4693"></path><path d="M452.608 643.072l34.816-247.808s26.624-83.968 124.928-86.016 178.176 32.768 190.464 120.832C798.72 516.096 778.24 686.08 778.24 686.08s-2.048 14.336-18.432 16.384c-16.384 2.048-290.816-34.816-290.816-34.816s-18.432-4.096-16.384-24.576z" fill="#D4802A" p-id="4694"></path><path d="M471.04 628.736l32.768-225.28s22.528-75.776 112.64-77.824c90.112-4.096 161.792 28.672 172.032 110.592-4.096 79.872-22.528 233.472-22.528 233.472s-2.048 12.288-16.384 14.336-264.192-30.72-264.192-30.72-18.432-6.144-14.336-24.576z" fill="#F9D78E" p-id="4695"></path><path d="M724.992 421.888c-4.096-6.144-10.24-8.192-16.384-12.288-2.048-2.048-4.096-2.048-6.144-4.096-8.192-8.192-16.384-10.24-28.672-14.336-10.24-2.048-18.432 2.048-26.624 8.192-6.144 4.096-12.288 2.048-18.432 6.144-8.192 4.096-14.336 12.288-20.48 18.432l-2.048 2.048c-6.144 6.144-10.24 12.288-10.24 22.528 0 4.096 2.048 8.192 2.048 10.24v14.336c0 6.144 2.048 12.288 4.096 18.432 2.048 8.192 6.144 16.384 12.288 22.528 6.144 6.144 12.288 8.192 18.432 12.288 4.096 2.048 6.144 4.096 10.24 4.096 4.096 2.048 8.192 2.048 12.288 2.048 2.048 0 4.096 2.048 8.192 4.096 4.096 0 10.24-2.048 14.336-4.096 2.048-2.048 4.096-4.096 8.192-4.096 4.096-2.048 6.144 0 8.192 0 12.288 0 26.624-10.24 32.768-22.528 2.048-6.144 2.048-12.288 6.144-16.384 2.048-6.144 2.048-14.336 0-20.48v-20.48c2.048-10.24-2.048-18.432-8.192-26.624z" fill="#FFFFFF" p-id="4696"></path><path d="M724.992 421.888l-6.144-6.144c2.048 4.096 4.096 10.24 4.096 16.384s-2.048 14.336 0 20.48c0 6.144 2.048 14.336 0 20.48s-2.048 12.288-6.144 16.384c-6.144 10.24-18.432 22.528-32.768 22.528H675.84c-2.048 0-6.144 4.096-8.192 4.096-4.096 2.048-8.192 4.096-14.336 4.096-2.048 0-6.144-2.048-8.192-4.096-4.096-2.048-8.192 0-12.288-2.048s-6.144-4.096-10.24-4.096c-6.144-2.048-12.288-6.144-16.384-10.24 2.048 4.096 6.144 10.24 10.24 12.288 6.144 6.144 12.288 8.192 18.432 12.288 4.096 2.048 6.144 4.096 10.24 4.096 4.096 2.048 8.192 2.048 12.288 2.048 2.048 0 4.096 2.048 8.192 4.096 4.096 0 10.24-2.048 14.336-4.096 2.048-2.048 4.096-4.096 8.192-4.096 4.096-2.048 6.144 0 8.192 0 12.288 0 26.624-10.24 32.768-22.528 2.048-6.144 2.048-12.288 6.144-16.384 2.048-6.144 2.048-14.336 0-20.48v-20.48c0-8.192-4.096-16.384-10.24-24.576z" fill="#F0EFE4" p-id="4697"></path><path d="M631.858522 477.32751a24.576 34.816 57.811 1 0 58.929245-37.093928 24.576 34.816 57.811 1 0-58.929245 37.093928Z" fill="#FBF203" p-id="4698"></path><path d="M675.84 479.232c14.336-8.192 20.48-22.528 18.432-32.768 0 10.24-6.144 22.528-18.432 30.72-16.384 10.24-34.816 10.24-43.008-2.048l-2.048-6.144c0 4.096 0 8.192 2.048 10.24 6.144 10.24 26.624 10.24 43.008 0z" fill="#E6C93D" p-id="4699"></path><path d="M673.792 528.384c-2.048-8.192-8.192-14.336-14.336-18.432l-6.144-6.144c-8.192-12.288-16.384-18.432-28.672-26.624-10.24-6.144-20.48-4.096-32.768 0-8.192 2.048-14.336-2.048-22.528 0-10.24 2.048-20.48 10.24-30.72 14.336-2.048 0-2.048 0-4.096 2.048-10.24 4.096-16.384 10.24-18.432 20.48-2.048 4.096 0 8.192 0 14.336 0 4.096-2.048 10.24-4.096 16.384v20.48c0 10.24 2.048 20.48 6.144 28.672 4.096 8.192 10.24 14.336 18.432 18.432 4.096 2.048 6.144 6.144 10.24 8.192 4.096 4.096 8.192 4.096 12.288 6.144 2.048 2.048 4.096 4.096 8.192 6.144 6.144 2.048 10.24 2.048 16.384 0 4.096 0 6.144-2.048 10.24-2.048s6.144 2.048 10.24 2.048c14.336 6.144 32.768-4.096 43.008-14.336 4.096-4.096 6.144-12.288 12.288-16.384 6.144-6.144 6.144-14.336 6.144-24.576 2.048-8.192 4.096-16.384 8.192-22.528 6.144-6.144 2.048-16.384 0-26.624z" fill="#FFFFFF" p-id="4700"></path><path d="M673.792 528.384c-2.048-4.096-2.048-6.144-6.144-10.24 2.048 6.144 2.048 12.288-2.048 18.432-4.096 6.144-6.144 14.336-8.192 22.528-2.048 8.192-2.048 16.384-6.144 24.576-4.096 6.144-6.144 12.288-12.288 16.384-10.24 10.24-28.672 20.48-43.008 14.336-4.096-2.048-6.144-2.048-10.24-2.048s-6.144 2.048-10.24 2.048c-6.144 2.048-10.24 2.048-16.384 0-4.096-2.048-6.144-4.096-8.192-6.144l-12.288-6.144c-4.096-2.048-6.144-6.144-10.24-8.192-6.144-4.096-12.288-10.24-16.384-16.384l6.144 18.432c4.096 8.192 10.24 14.336 18.432 18.432 4.096 2.048 6.144 6.144 10.24 8.192 4.096 4.096 8.192 4.096 12.288 6.144 2.048 2.048 4.096 4.096 8.192 6.144 6.144 2.048 10.24 2.048 16.384 0 4.096 0 6.144-2.048 10.24-2.048s6.144 2.048 10.24 2.048c14.336 6.144 32.768-4.096 43.008-14.336 4.096-4.096 6.144-12.288 12.288-16.384 6.144-6.144 6.144-14.336 6.144-24.576 2.048-8.192 4.096-16.384 8.192-22.528 6.144-8.192 2.048-18.432 0-28.672z" fill="#F0EFE4" p-id="4701"></path><path d="M550.491833 560.119754a28.672 40.96 74.112 1 0 78.790547-22.426238 28.672 40.96 74.112 1 0-78.790547 22.426238Z" fill="#FBF203" p-id="4702"></path><path d="M598.016 577.536c18.432-6.144 30.72-18.432 32.768-32.768-2.048 12.288-16.384 22.528-30.72 28.672-22.528 8.192-43.008-2.048-47.104-16.384l-2.048-6.144c-2.048 4.096-2.048 8.192 0 12.288 2.048 12.288 24.576 20.48 47.104 14.336z" fill="#E6C93D" p-id="4703"></path><path d="M415.744 690.176s135.168-14.336 108.544 108.544c-14.336 49.152-53.248 51.2-79.872 57.344-77.824 16.384-122.88-137.216-28.672-165.888z" fill="#EE3517" p-id="4704"></path><path d="M397.312 806.912c8.192 12.288 43.008 51.2 102.4 10.24 18.432-14.336-10.24-28.672-20.48-47.104 0 0 16.384 12.288 24.576 2.048 2.048-18.432-6.144-38.912-20.48-49.152-8.192-16.384-14.336-16.384-18.432-22.528-4.096-6.144-8.192 4.096-18.432 4.096-38.912-8.192-53.248 12.288-53.248 12.288-24.576 16.384-14.336 65.536 4.096 90.112z m40.96-67.584c12.288-2.048 26.624 6.144 28.672 22.528 4.096 16.384-4.096 30.72-16.384 34.816-12.288 2.048-26.624-6.144-28.672-22.528-6.144-16.384 2.048-30.72 16.384-34.816z" fill="#C62410" p-id="4705"></path><path d="M473.836661 747.768026a4.096 10.24 65.464 1 0 18.630667-8.504626 4.096 10.24 65.464 1 0-18.630667 8.504626Z" fill="#E18224" p-id="4706"></path><path d="M473.088 747.52c2.048 2.048 4.096 2.048 8.192 0s6.144-6.144 4.096-6.144c-2.048-2.048-4.096-2.048-8.192 0s-6.144 4.096-4.096 6.144z" fill="#FBB23E" p-id="4707"></path><path d="M479.294158 767.122522a4.096 10.24 83.464 1 0 20.346891-2.331187 4.096 10.24 83.464 1 0-20.346891 2.331187Z" fill="#E18224" p-id="4708"></path><path d="M479.232 768c0 2.048 4.096 2.048 8.192 4.096 4.096-2.048 6.144-2.048 6.144-6.144 0-2.048-4.096-2.048-8.192-4.096-4.096 2.048-8.192 2.048-6.144 6.144z" fill="#FBB23E" p-id="4709"></path><path d="M464.461416 738.419911a4.096 10.24 40.258 1 0 13.234802-15.629153 4.096 10.24 40.258 1 0-13.234802 15.629153Z" fill="#E18224" p-id="4710"></path><path d="M462.848 737.28c2.048 2.048 4.096 0 6.144-2.048 2.048-4.096 2.048-6.144 0-8.192-2.048-2.048-4.096 0-6.144 2.048-2.048 4.096-2.048 6.144 0 8.192z" fill="#FBB23E" p-id="4711"></path><path d="M421.930519 725.461637a10.24 4.096 83.565 1 0 8.140387-0.918127 10.24 4.096 83.565 1 0-8.140387 0.918127Z" fill="#E18224" p-id="4712"></path><path d="M423.936 733.184c2.048 0 2.048-4.096 4.096-8.192-2.048-4.096-2.048-6.144-6.144-6.144-2.048 0-2.048 4.096-4.096 8.192s4.096 6.144 6.144 6.144z" fill="#FBB23E" p-id="4713"></path><path d="M443.44656 734.876173a4.096 10.24 11.56 1 0 4.10407-20.064572 4.096 10.24 11.56 1 0-4.10407 20.064572Z" fill="#E18224" p-id="4714"></path><path d="M442.368 733.184c2.048 2.048 4.096-2.048 4.096-6.144s-2.048-6.144-2.048-6.144c-2.048-2.048-4.096 2.048-4.096 6.144l2.048 6.144z" fill="#FBB23E" p-id="4715"></path><path d="M402.017114 735.251564a10.24 4.096 58.357 1 0 6.974124-4.297728 10.24 4.096 58.357 1 0-6.974124 4.297728Z" fill="#E18224" p-id="4716"></path><path d="M411.648 741.376v-8.192l-8.192-4.096v8.192l8.192 4.096z" fill="#FBB23E" p-id="4717"></path><path d="M402.968867 804.590908a4.096 10.24 55.66 1 0 16.910432-11.552822 4.096 10.24 55.66 1 0-16.910432 11.552822Z" fill="#E18224" p-id="4718"></path><path d="M421.888 792.576l-8.192 2.048-4.096 8.192 8.192-2.048 4.096-8.192z" fill="#FBB23E" p-id="4719"></path><path d="M393.717795 781.120345a4.096 10.24 73.658 1 0 19.652594-5.762462 4.096 10.24 73.658 1 0-19.652594 5.762462Z" fill="#E18224" p-id="4720"></path><path d="M411.648 776.192c0-2.048-4.096-2.048-8.192-4.096-4.096 2.048-6.144 4.096-4.096 6.144 0 2.048 4.096 2.048 8.192 4.096 2.048-4.096 6.144-4.096 4.096-6.144z" fill="#FBB23E" p-id="4721"></path><path d="M422.122035 819.191948a4.096 10.24 30.458 1 0 10.381447-17.65378 4.096 10.24 30.458 1 0-10.381447 17.65378Z" fill="#E18224" p-id="4722"></path><path d="M432.128 800.768l-8.192 4.096 2.048 8.192 8.192-4.096-2.048-8.192z" fill="#FBB23E" p-id="4723"></path><path d="M467.409798 816.853163a10.24 4.096 62.055 1 0 7.236796-3.838966 10.24 4.096 62.055 1 0-7.236796 3.838966Z" fill="#E18224" p-id="4724"></path><path d="M464.896 804.864v8.192c2.048 4.096 6.144 4.096 8.192 4.096v-8.192l-8.192-4.096z" fill="#FBB23E" p-id="4725"></path><path d="M448.592296 823.983412a10.24 4.096 80.164 1 0 8.071584-1.399428 10.24 4.096 80.164 1 0-8.071584 1.399428Z" fill="#E18224" p-id="4726"></path><path d="M446.464 811.008c-2.048 0-2.048 4.096-4.096 8.192l6.144 6.144c2.048 0 2.048-4.096 4.096-8.192l-6.144-6.144z" fill="#FBB23E" p-id="4727"></path><path d="M480.838433 804.676283a10.24 4.096 36.857 1 0 4.913725-6.554706 10.24 4.096 36.857 1 0-4.913725 6.554706Z" fill="#E18224" p-id="4728"></path><path d="M475.136 794.624c-2.048 2.048 0 4.096 2.048 6.144 4.096 2.048 6.144 2.048 8.192 0s0-4.096-2.048-6.144c-4.096-2.048-6.144-2.048-8.192 0z" fill="#FBB23E" p-id="4729"></path><path d="M335.872 614.4s135.168-14.336 108.544 108.544c-14.336 49.152-53.248 51.2-79.872 57.344-79.872 14.336-122.88-139.264-28.672-165.888z" fill="#EE3517" p-id="4730"></path><path d="M317.44 733.184c8.192 12.288 43.008 51.2 102.4 10.24 18.432-14.336-10.24-28.672-20.48-47.104 0 0 16.384 12.288 24.576 2.048 2.048-18.432-6.144-38.912-20.48-49.152-8.192-16.384-14.336-16.384-18.432-22.528-4.096-6.144-8.192 4.096-18.432 4.096-36.864-8.192-51.2 12.288-51.2 12.288-24.576 14.336-18.432 63.488 2.048 90.112z m38.912-69.632c12.288-2.048 26.624 6.144 28.672 22.528 4.096 16.384-4.096 30.72-16.384 34.816-12.288 2.048-26.624-6.144-28.672-22.528-4.096-16.384 4.096-30.72 16.384-34.816z" fill="#C62410" p-id="4731"></path><path d="M392.216537 671.855563a4.096 10.24 65.464 1 0 18.630667-8.504625 4.096 10.24 65.464 1 0-18.630667 8.504625Z" fill="#E18224" p-id="4732"></path><path d="M393.216 671.744c2.048 2.048 4.096 2.048 8.192 0s6.144-6.144 4.096-6.144c-2.048-2.048-4.096-2.048-8.192 0s-6.144 2.048-4.096 6.144z" fill="#FBB23E" p-id="4733"></path><path d="M399.433947 691.348188a4.096 10.24 83.464 1 0 20.346891-2.331187 4.096 10.24 83.464 1 0-20.346891 2.331187Z" fill="#E18224" p-id="4734"></path><path d="M397.312 692.224c0 2.048 4.096 2.048 8.192 4.096 4.096-2.048 6.144-2.048 6.144-6.144 0-2.048-4.096-2.048-8.192-4.096l-6.144 6.144z" fill="#FBB23E" p-id="4735"></path><path d="M386.203216 660.683267a4.096 10.24 40.258 1 0 13.234802-15.629154 4.096 10.24 40.258 1 0-13.234802 15.629154Z" fill="#E18224" p-id="4736"></path><path d="M382.976 661.504c2.048 2.048 4.096 0 6.144-2.048 2.048-4.096 2.048-6.144 0-8.192s-4.096 0-6.144 2.048v8.192z" fill="#FBB23E" p-id="4737"></path><path d="M337.947097 647.650016a10.24 4.096 83.565 1 0 8.140387-0.918126 10.24 4.096 83.565 1 0-8.140387 0.918126Z" fill="#E18224" p-id="4738"></path><path d="M344.064 657.408c2.048 0 2.048-4.096 4.096-8.192-2.048-4.096-2.048-6.144-6.144-6.144-2.048 0-2.048 4.096-4.096 8.192 2.048 4.096 4.096 6.144 6.144 6.144z" fill="#FBB23E" p-id="4739"></path><path d="M364.681755 658.029373a4.096 10.24 11.56 1 0 4.104069-20.064571 4.096 10.24 11.56 1 0-4.104069 20.064571Z" fill="#E18224" p-id="4740"></path><path d="M364.544 657.408c2.048 2.048 4.096-2.048 4.096-6.144s-2.048-6.144-2.048-6.144c-2.048-2.048-4.096 2.048-4.096 6.144s0 6.144 2.048 6.144z" fill="#FBB23E" p-id="4741"></path><path d="M322.065073 655.50671a10.24 4.096 58.357 1 0 6.974124-4.297728 10.24 4.096 58.357 1 0-6.974124 4.297728Z" fill="#E18224" p-id="4742"></path><path d="M331.776 663.552V655.36l-8.192-4.096v8.192l8.192 4.096z" fill="#FBB23E" p-id="4743"></path><path d="M323.450591 728.730927a4.096 10.24 55.66 1 0 16.910431-11.552822 4.096 10.24 55.66 1 0-16.910431 11.552822Z" fill="#E18224" p-id="4744"></path><path d="M342.016 716.8l-8.192 2.048-4.096 8.192 8.192-2.048 4.096-8.192z" fill="#FBB23E" p-id="4745"></path><path d="M311.717977 705.402856a4.096 10.24 73.658 1 0 19.652594-5.762462 4.096 10.24 73.658 1 0-19.652594 5.762462Z" fill="#E18224" p-id="4746"></path><path d="M331.776 698.368c0-2.048-4.096-2.048-8.192-4.096-4.096 2.048-6.144 4.096-4.096 6.144 0 2.048 4.096 2.048 8.192 4.096 2.048 0 6.144-4.096 4.096-6.144z" fill="#FBB23E" p-id="4747"></path><path d="M343.213736 743.544163a4.096 10.24 30.458 1 0 10.381448-17.65378 4.096 10.24 30.458 1 0-10.381448 17.65378Z" fill="#E18224" p-id="4748"></path><path d="M352.256 724.992l-8.192 4.096 2.048 8.192 8.192-4.096-2.048-8.192z" fill="#FBB23E" p-id="4749"></path><path d="M387.751239 739.067779a10.24 4.096 62.055 1 0 7.236795-3.838966 10.24 4.096 62.055 1 0-7.236795 3.838966Z" fill="#E18224" p-id="4750"></path><path d="M387.072 729.088v8.192c2.048 4.096 6.144 4.096 8.192 4.096v-8.192l-8.192-4.096z" fill="#FBB23E" p-id="4751"></path><path d="M362.527617 744.119125a10.24 4.096 80.164 1 0 8.071584-1.399428 10.24 4.096 80.164 1 0-8.071584 1.399428Z" fill="#E18224" p-id="4752"></path><path d="M368.64 735.232c-2.048 0-2.048 4.096-4.096 8.192l6.144 6.144c2.048 0 2.048-4.096 4.096-8.192l-6.144-6.144z" fill="#FBB23E" p-id="4753"></path><path d="M403.120807 727.59745a10.24 4.096 36.857 1 0 4.913724-6.554707 10.24 4.096 36.857 1 0-4.913724 6.554707Z" fill="#E18224" p-id="4754"></path><path d="M395.264 718.848c-2.048 2.048 0 4.096 2.048 6.144 4.096 2.048 6.144 2.048 8.192 0s0-4.096-2.048-6.144h-8.192z" fill="#FBB23E" p-id="4755"></path><path d="M284.672 491.52s135.168-14.336 108.544 108.544c-14.336 49.152-53.248 51.2-79.872 57.344-79.872 14.336-122.88-139.264-28.672-165.888z" fill="#EE3517" p-id="4756"></path><path d="M266.24 610.304c8.192 12.288 43.008 51.2 102.4 10.24 18.432-14.336-10.24-28.672-20.48-47.104 0 0 16.384 12.288 24.576 2.048 2.048-18.432-6.144-38.912-20.48-49.152-8.192-16.384-14.336-16.384-18.432-22.528-4.096-6.144-8.192 4.096-18.432 4.096-36.864-8.192-51.2 12.288-51.2 12.288-24.576 14.336-18.432 63.488 2.048 90.112z m38.912-69.632c12.288-2.048 26.624 6.144 28.672 22.528 4.096 16.384-4.096 30.72-16.384 34.816-12.288 2.048-26.624-6.144-28.672-22.528-4.096-16.384 4.096-30.72 16.384-34.816z" fill="#C62410" p-id="4757"></path><path d="M341.031697 548.96336a4.096 10.24 65.464 1 0 18.630667-8.504625 4.096 10.24 65.464 1 0-18.630667 8.504625Z" fill="#E18224" p-id="4758"></path><path d="M342.016 548.864c2.048 2.048 4.096 2.048 8.192 0s6.144-6.144 4.096-6.144c-2.048-2.048-4.096-2.048-8.192 0s-6.144 2.048-4.096 6.144z" fill="#FBB23E" p-id="4759"></path><path d="M348.236279 568.468054a4.096 10.24 83.464 1 0 20.346891-2.331186 4.096 10.24 83.464 1 0-20.346891 2.331186Z" fill="#E18224" p-id="4760"></path><path d="M346.112 569.344c0 2.048 4.096 2.048 8.192 4.096 4.096-2.048 6.144-2.048 6.144-6.144 0-2.048-4.096-2.048-8.192-4.096l-6.144 6.144z" fill="#FBB23E" p-id="4761"></path><path d="M334.998248 537.71063a4.096 10.24 40.258 1 0 13.234802-15.629153 4.096 10.24 40.258 1 0-13.234802 15.629153Z" fill="#E18224" p-id="4762"></path><path d="M331.776 538.624c2.048 2.048 4.096 0 6.144-2.048 2.048-4.096 2.048-6.144 0-8.192s-4.096 0-6.144 2.048v8.192z" fill="#FBB23E" p-id="4763"></path><path d="M286.746968 524.767721a10.24 4.096 83.565 1 0 8.140387-0.918126 10.24 4.096 83.565 1 0-8.140387 0.918126Z" fill="#E18224" p-id="4764"></path><path d="M292.864 534.528c2.048 0 2.048-4.096 4.096-8.192-2.048-4.096-2.048-6.144-6.144-6.144-2.048 0-2.048 4.096-4.096 8.192 2.048 4.096 2.048 6.144 6.144 6.144z" fill="#FBB23E" p-id="4765"></path><path d="M313.427317 534.959793a4.096 10.24 11.56 1 0 4.104069-20.064571 4.096 10.24 11.56 1 0-4.104069 20.064571Z" fill="#E18224" p-id="4766"></path><path d="M313.344 534.528c2.048 2.048 4.096-2.048 4.096-6.144s-2.048-6.144-2.048-6.144c-2.048-2.048-4.096 2.048-4.096 6.144s-2.048 6.144 2.048 6.144z" fill="#FBB23E" p-id="4767"></path><path d="M270.880472 532.599132a10.24 4.096 58.357 1 0 6.974124-4.297728 10.24 4.096 58.357 1 0-6.974124 4.297728Z" fill="#E18224" p-id="4768"></path><path d="M280.576 540.672V532.48l-8.192-4.096v8.192l8.192 4.096z" fill="#FBB23E" p-id="4769"></path><path d="M272.266557 605.820682a4.096 10.24 55.66 1 0 16.910432-11.552822 4.096 10.24 55.66 1 0-16.910432 11.552822Z" fill="#E18224" p-id="4770"></path><path d="M288.768 593.92l-8.192 2.048-4.096 8.192 8.192-2.048 4.096-8.192z" fill="#FBB23E" p-id="4771"></path><path d="M260.527847 582.509676a4.096 10.24 73.658 1 0 19.652594-5.762462 4.096 10.24 73.658 1 0-19.652594 5.762462Z" fill="#E18224" p-id="4772"></path><path d="M280.576 575.488c0-2.048-4.096-2.048-8.192-4.096-4.096 2.048-6.144 4.096-4.096 6.144 0 2.048 4.096 2.048 8.192 4.096 2.048 0 6.144-4.096 4.096-6.144z" fill="#FBB23E" p-id="4773"></path><path d="M292.016205 620.545598a4.096 10.24 30.458 1 0 10.381447-17.65378 4.096 10.24 30.458 1 0-10.381447 17.65378Z" fill="#E18224" p-id="4774"></path><path d="M301.056 604.16l-8.192 4.096 2.048 8.192 8.192-4.096-2.048-8.192z" fill="#FBB23E" p-id="4775"></path><path d="M334.092847 616.381617a10.24 4.096 62.055 1 0 7.236795-3.838966 10.24 4.096 62.055 1 0-7.236795 3.838966Z" fill="#E18224" p-id="4776"></path><path d="M335.872 606.208v8.192c2.048 4.096 6.144 4.096 8.192 4.096v-8.192l-8.192-4.096z" fill="#FBB23E" p-id="4777"></path><path d="M311.330815 621.235326a10.24 4.096 80.164 1 0 8.071584-1.399428 10.24 4.096 80.164 1 0-8.071584 1.399428Z" fill="#E18224" p-id="4778"></path><path d="M317.44 612.352c-2.048 0-2.048 4.096-4.096 8.192l6.144 6.144c2.048 0 2.048-4.096 4.096-8.192l-6.144-6.144z" fill="#FBB23E" p-id="4779"></path><path d="M351.937184 604.627316a10.24 4.096 36.857 1 0 4.913725-6.554707 10.24 4.096 36.857 1 0-4.913725 6.554707Z" fill="#E18224" p-id="4780"></path><path d="M344.064 595.968c-2.048 2.048 0 4.096 2.048 6.144 4.096 2.048 6.144 2.048 8.192 0s0-4.096-2.048-6.144h-8.192z" fill="#FBB23E" p-id="4781"></path></svg>