<?xml version="1.0" standalone="no"?><!DOCTYPE svg PUBLIC "-//W3C//DTD SVG 1.1//EN" "http://www.w3.org/Graphics/SVG/1.1/DTD/svg11.dtd"><svg t="1538644570935" class="icon" style="" viewBox="0 0 1024 1024" version="1.1" xmlns="http://www.w3.org/2000/svg" p-id="11290" xmlns:xlink="http://www.w3.org/1999/xlink" width="200" height="200"><defs><style type="text/css"></style></defs><path d="M765.147 0H266.145c-18.713 0-34.023 15.311-34.023 34.023V982.53c0 18.713 15.311 34.023 34.023 34.023h499.003c18.712 0 34.022-15.311 34.022-34.023V34.023C799.17 15.311 783.859 0 765.147 0z m11.341 982.53c0 6.146-5.194 11.342-11.341 11.342H266.145c-6.146 0-11.341-5.195-11.341-11.342V34.023c0-6.147 5.194-11.341 11.341-11.341h499.003c6.146 0 11.341 5.194 11.341 11.341V982.53z" fill="#12126D" p-id="11291"></path><path d="M314.156 138.075h402.979v740.402H314.156z" fill="#B4CEFC" p-id="11292"></path><path d="M705.793 867.137H325.496V149.416h380.297v717.721z m22.682-740.403h-425.66v763.084h425.66V126.734zM451.38 62.525c-6.265 0-11.341 5.077-11.341 11.341 0 6.263 5.076 11.341 11.341 11.341 6.263 0 11.341-5.079 11.341-11.341 0-6.264-5.078-11.341-11.341-11.341M576.131 62.525h-90.729c-6.237 0-11.341 5.104-11.341 11.341 0 6.238 5.104 11.341 11.341 11.341h90.729c6.237 0 11.341-5.104 11.341-11.341 0-6.238-5.104-11.341-11.341-11.341M514.668 932.458c6.254 0 11.341 5.088 11.341 11.34 0 6.256-5.087 11.342-11.341 11.342-6.253 0-11.341-5.086-11.341-11.342 0-6.253 5.088-11.34 11.341-11.34m0-22.682c-18.789 0-34.023 15.232-34.023 34.021 0 18.791 15.234 34.023 34.023 34.023 18.791 0 34.023-15.232 34.023-34.023 0-18.789-15.232-34.021-34.023-34.021" fill="#12126D" p-id="11293"></path><path d="M69.023 879.955c-12.507 0-22.683-10.175-22.683-22.682V552.322c0-12.507 10.176-22.682 22.683-22.682h447.543c12.507 0 22.682 10.175 22.682 22.682v304.951c0 12.507-10.175 22.682-22.682 22.682H69.023z" fill="#E0D224" p-id="11294"></path><path d="M516.566 540.982c6.147 0 11.341 5.192 11.341 11.341v304.95c0 6.146-5.193 11.341-11.341 11.341H69.023c-6.147 0-11.342-5.194-11.342-11.341v-304.95c0-6.148 5.194-11.341 11.342-11.341h447.543m0-22.683H69.023C50.31 518.299 35 533.609 35 552.322v304.95c0 18.712 15.311 34.022 34.023 34.022h447.543c18.712 0 34.022-15.311 34.022-34.022v-304.95c0.001-18.713-15.31-34.023-34.022-34.023" fill="#12126D" p-id="11295"></path><path d="M57.961 627.306H528.1v22.682H57.961zM492.414 789.481h-68.046c-6.264 0-11.341-5.077-11.341-11.342 0-6.263 5.077-11.341 11.341-11.341h68.046c6.264 0 11.342 5.078 11.342 11.341 0 6.265-5.078 11.342-11.342 11.342" fill="#FFFFFF" p-id="11296"></path><path d="M787.072 488.945c-103.807 0-188.26-84.453-188.26-188.26s84.453-188.26 188.26-188.26c103.808 0 188.261 84.453 188.261 188.26s-84.453 188.26-188.261 188.26" fill="#E0D224" p-id="11297"></path><path d="M787.072 123.766c47.257 0 91.686 18.403 125.102 51.818 33.414 33.417 51.818 77.845 51.818 125.101 0 47.257-18.404 91.686-51.818 125.102-33.416 33.415-77.845 51.818-125.102 51.818-47.256 0-91.686-18.403-125.102-51.818-33.415-33.416-51.817-77.845-51.817-125.102 0-47.256 18.402-91.685 51.817-125.101 33.417-33.415 77.846-51.818 125.102-51.818m0-22.682c-110.236 0-199.601 89.365-199.601 199.601 0 110.237 89.364 199.601 199.601 199.601s199.602-89.364 199.602-199.601c0-110.236-89.364-199.601-199.602-199.601" fill="#12126D" p-id="11298"></path><path d="M787.659 278.763c-10.072-0.78-17.947-9.299-17.947-19.438 0-10.799 8.709-19.585 19.414-19.585 10.646 0 19.307 8.786 19.307 19.585 0 6.135 4.966 11.125 11.069 11.125 6.11 0 11.081-4.99 11.081-11.125 0-18.745-12.657-35.312-30.43-40.295v-9.044c0-6.146-4.971-11.146-11.147-11.146-6.05 0.134-10.972 5.152-10.972 11.188v9.066c-17.766 4.971-30.419 21.529-30.419 40.274 0 22.068 17.07 40.196 38.613 41.7l0.013 0.141h2.778c0.101 0 0.221-0.005 0.354-0.019 10.369 0.921 19.06 9.687 19.06 19.317 0 10.794-8.661 19.576-19.307 19.576-10.705 0-19.414-8.782-19.414-19.576 0-6.139-4.965-11.134-11.068-11.134-6.11 0-11.082 4.995-11.082 11.134 0 18.732 12.659 35.291 30.43 40.273v8.961c0 6.145 4.971 11.143 11.081 11.143s11.081-4.998 11.081-11.143v-9.066c17.771-4.972 30.43-21.531 30.43-40.275-0.001-22.531-19.603-41.573-42.925-41.637z" fill="#FFFFFF" p-id="11299"></path></svg>