<?xml version="1.0" standalone="no"?><!DOCTYPE svg PUBLIC "-//W3C//DTD SVG 1.1//EN" "http://www.w3.org/Graphics/SVG/1.1/DTD/svg11.dtd"><svg t="1543396804184" class="icon" style="" viewBox="0 0 1025 1024" version="1.1" xmlns="http://www.w3.org/2000/svg" p-id="8362" xmlns:xlink="http://www.w3.org/1999/xlink" width="200.1953125" height="200"><defs><style type="text/css"></style></defs><path d="M742.607132 682.30866l281.392868 281.444012-60.247328 60.196184-281.392868-281.341724v152.715213a42.50045 42.50045 0 1 1-85.15433 0v-255.565278a42.398162 42.398162 0 0 1 42.295875-42.551593H895.322345a42.551593 42.551593 0 1 1 0 85.103186H742.607132z m-461.214264 0L0 963.752672l60.196184 60.196184L341.640196 742.607132v152.715213a42.602737 42.602737 0 0 0 85.15433 0v-255.565278a42.347018 42.347018 0 0 0-42.295875-42.551593H128.677655a42.551593 42.551593 0 0 0 0 85.103186h152.715213z m0-340.668464L0 60.196184 60.196184 0.051144 341.640196 281.392868V128.677655a42.602737 42.602737 0 0 1 85.15433 0v255.565278a42.347018 42.347018 0 0 1-42.295875 42.551593H128.677655a42.602737 42.602737 0 0 1 0-85.15433h152.715213z m461.214264 0l281.392868-281.392868L963.752672 0l-281.392868 281.392868V128.677655a42.551593 42.551593 0 0 0-85.15433 0v255.565278a42.449306 42.449306 0 0 0 42.295875 42.551593H895.322345a42.602737 42.602737 0 1 0 0-85.15433H742.607132z" fill="#d81e06" p-id="8363"></path></svg>